# xmcd
#
# Track frame offsets: 
#        150
#        21261
#        38237
#        73712
#        94093
#        127557
#        143782
#        161769
#        196534
#        211257
#        227887
#        245699
#        270151
#        286367
#        303482
#        317505
#        339598
#
# Disc length: 4772 seconds
#
# Revision: 3
# Processed by: cddbd v1.5.2PL0 Copyright (c) Steve Scherf et al.
# Submitted via: ExactAudioCopy v1.3
#
DISCID=e912a211
DTITLE=Various Artist - Akella Presents - vol.81 - Rockin' Blues  CD2
DYEAR=2016
DGENRE=Blues
TTITLE0=The Stumble - New Orleans
TTITLE1=Woodleg Odds - You Done Me Wrong
TTITLE2=Arny Kay - Talk It Over Again
TTITLE3=Tim Gonzalez and Friends - Voodoo Moon
TTITLE4=Gregg Wright - Fast One
TTITLE5=Jordan Patterson Band - Living Without Your Love
TTITLE6=The Citations - Mean Woman Blues
TTITLE7=Ralph de Jongh and Hans van Lier - I Feel Like A Weasel
TTITLE8=Randy Dawson - Maniac Insomniac
TTITLE9=The Rich Fabec Band - Under Her Spell
TTITLE10=Bill Wharton And The Ingredients - She's A Monkey
TTITLE11=The Jake Levinson Band - The Night
TTITLE12=The Maynard Brothers - Don't Mind Living Alone
TTITLE13=Stan West - Blue Heart Disease
TTITLE14=Thorbjorn Risager - You Walked Right In
TTITLE15=Grant Lyle - You're Killing Me
TTITLE16=Too Slim and The Taildraggers - Last Train
EXTD=
EXTT0=
EXTT1=
EXTT2=
EXTT3=
EXTT4=
EXTT5=
EXTT6=
EXTT7=
EXTT8=
EXTT9=
EXTT10=
EXTT11=
EXTT12=
EXTT13=
EXTT14=
EXTT15=
EXTT16=
PLAYORDER=
